<svg width="332" height="265" viewBox="0 0 332 265" fill="none" xmlns="http://www.w3.org/2000/svg">
<path d="M115.329 25.2787L71.3386 50.6826L71.2992 55.1533V59.6658H159.517H247.735V55.1533V50.6826L203.941 25.404C179.878 11.4904 159.989 0.0836977 159.753 0.000132278C159.517 -0.0416504 139.51 11.3232 115.329 25.2787ZM193.898 31.5043C212.566 41.7411 228.004 50.2647 228.201 50.5154C228.437 50.7243 202.405 50.8915 159.32 50.8915C121.237 50.8915 90.203 50.7661 90.3605 50.599C90.8725 50.0558 158.926 12.911 159.438 12.911C159.753 12.8692 175.231 21.2675 193.898 31.5043Z" fill="#E7E7E7"/>
<path d="M90.7543 69.0252C89.1396 69.7772 88.2338 71.1979 88.2338 73.0363C88.2338 76.0029 90.3999 77.6324 94.3381 77.6324H96.5042V106.462V135.293H94.3381C90.3999 135.293 88.2338 136.922 88.2338 139.889C88.2338 141.769 89.1396 143.148 90.8331 143.9C92.7628 144.777 125.451 144.777 127.38 143.9C129.074 143.148 129.98 141.769 129.98 139.889C129.98 136.922 127.814 135.293 123.875 135.293H121.709V106.462V77.6324H123.875C127.814 77.6324 129.98 76.0029 129.98 73.0363C129.98 71.1561 129.074 69.7772 127.38 69.0252C125.49 68.1895 92.5659 68.1895 90.7543 69.0252ZM113.439 106.462V135.293H109.107H104.775V106.462V77.6324H109.107H113.439V106.462Z" fill="#E7E7E7"/>
<path d="M141.164 69.0252C139.55 69.7772 138.644 71.1979 138.644 73.0363C138.644 76.0029 140.81 77.6324 144.748 77.6324H146.914V106.462V135.293H144.748C140.81 135.293 138.644 136.922 138.644 139.889C138.644 141.769 139.55 143.148 141.243 143.9C143.173 144.777 175.861 144.777 177.79 143.9C179.484 143.148 180.39 141.769 180.39 139.889C180.39 136.922 178.224 135.293 174.285 135.293H172.119V106.462V77.6324H174.285C178.224 77.6324 180.39 76.0029 180.39 73.0363C180.39 71.1561 179.484 69.7772 177.79 69.0252C175.9 68.1895 142.976 68.1895 141.164 69.0252ZM163.849 106.462V135.293H159.517H155.185V106.462V77.6324H159.517H163.849V106.462Z" fill="#E7E7E7"/>
<path d="M191.574 69.0252C189.96 69.7772 189.054 71.1979 189.054 73.0363C189.054 76.0029 191.22 77.6324 195.158 77.6324H197.324V106.462V135.293H195.158C191.22 135.293 189.054 136.922 189.054 139.889C189.054 141.769 189.96 143.148 191.653 143.9C193.583 144.777 226.271 144.777 228.201 143.9C229.894 143.148 230.8 141.769 230.8 139.889C230.8 136.922 228.634 135.293 224.695 135.293H222.529V106.462V77.6324H224.695C228.634 77.6324 230.8 76.0029 230.8 73.0363C230.8 71.1561 229.894 69.7772 228.201 69.0252C226.31 68.1895 193.386 68.1895 191.574 69.0252ZM214.259 106.462V135.293H209.927H205.595V106.462V77.6324H209.927H214.259V106.462Z" fill="#E7E7E7"/>
<path d="M77.5216 153.969C75.3161 155.432 74.9223 158.858 76.7733 160.822L77.9154 162.033H159.517H241.118L242.26 160.822C244.151 158.774 243.599 154.889 241.236 153.76C240.449 153.384 221.23 153.259 159.399 153.259C84.8074 153.301 78.5062 153.343 77.5216 153.969Z" fill="#E7E7E7"/>
<path d="M64.1708 172.437C62.3198 174.443 62.7137 177.869 64.9979 179.29C66.0218 179.958 73.0714 180 159.477 180C230.997 180 253.051 179.875 253.839 179.499C256.202 178.37 256.753 174.485 254.863 172.437L253.721 171.226H159.517H65.3129L64.1708 172.437Z" fill="#E7E7E7"/>
<path d="M14.991 230.396C12.255 230.396 9.91505 229.856 7.97105 228.776C6.02705 227.696 4.52705 226.184 3.47105 224.24C2.43905 222.272 1.92305 219.956 1.92305 217.292C1.92305 214.652 2.43905 212.36 3.47105 210.416C4.52705 208.448 6.02705 206.924 7.97105 205.844C9.91505 204.764 12.255 204.224 14.991 204.224C16.671 204.224 18.279 204.488 19.815 205.016C21.351 205.544 22.611 206.264 23.595 207.176L21.867 211.604C20.787 210.764 19.695 210.152 18.591 209.768C17.511 209.36 16.371 209.156 15.171 209.156C12.747 209.156 10.911 209.864 9.66305 211.28C8.43905 212.672 7.82705 214.676 7.82705 217.292C7.82705 219.908 8.43905 221.924 9.66305 223.34C10.911 224.756 12.747 225.464 15.171 225.464C16.371 225.464 17.511 225.272 18.591 224.888C19.695 224.48 20.787 223.856 21.867 223.016L23.595 227.444C22.611 228.332 21.351 229.052 19.815 229.604C18.279 230.132 16.671 230.396 14.991 230.396ZM34.0156 230.396C32.1196 230.396 30.4636 230.024 29.0476 229.28C27.6556 228.512 26.5756 227.444 25.8076 226.076C25.0396 224.684 24.6556 223.04 24.6556 221.144C24.6556 219.272 25.0396 217.652 25.8076 216.284C26.5756 214.892 27.6556 213.824 29.0476 213.08C30.4636 212.336 32.1196 211.964 34.0156 211.964C35.9116 211.964 37.5556 212.336 38.9476 213.08C40.3636 213.824 41.4556 214.892 42.2236 216.284C43.0156 217.652 43.4116 219.272 43.4116 221.144C43.4116 223.04 43.0156 224.684 42.2236 226.076C41.4556 227.444 40.3636 228.512 38.9476 229.28C37.5556 230.024 35.9116 230.396 34.0156 230.396ZM34.0156 226.328C35.1676 226.328 36.1036 225.908 36.8236 225.068C37.5676 224.228 37.9396 222.92 37.9396 221.144C37.9396 219.392 37.5676 218.108 36.8236 217.292C36.1036 216.452 35.1676 216.032 34.0156 216.032C32.8636 216.032 31.9276 216.452 31.2076 217.292C30.4876 218.108 30.1276 219.392 30.1276 221.144C30.1276 222.92 30.4876 224.228 31.2076 225.068C31.9276 225.908 32.8636 226.328 34.0156 226.328ZM46.7189 230V212.324H52.0469V214.916C52.6469 213.956 53.4509 213.224 54.4589 212.72C55.4669 212.216 56.5949 211.964 57.8429 211.964C59.9309 211.964 61.4909 212.576 62.5229 213.8C63.5549 215 64.0709 216.86 64.0709 219.38V230H58.6349V219.632C58.6349 218.408 58.4069 217.532 57.9509 217.004C57.4949 216.452 56.8229 216.176 55.9349 216.176C54.7829 216.176 53.8589 216.536 53.1629 217.256C52.4909 217.976 52.1549 218.936 52.1549 220.136V230H46.7189ZM76.805 230.396C71.837 230.396 69.353 227.984 69.353 223.16V216.392H66.005V212.324H69.353V207.14H74.789V212.324H80.009V216.392H74.789V222.944C74.789 223.952 75.017 224.708 75.473 225.212C75.953 225.716 76.709 225.968 77.741 225.968C78.053 225.968 78.377 225.932 78.713 225.86C79.073 225.788 79.457 225.692 79.865 225.572L80.657 229.532C80.153 229.796 79.553 230 78.857 230.144C78.161 230.312 77.477 230.396 76.805 230.396ZM82.6837 230V212.324H88.0117V215.384C88.8517 213.32 90.6517 212.18 93.4117 211.964L94.9957 211.856L95.3197 216.428L92.2597 216.752C89.5717 217.016 88.2277 218.384 88.2277 220.856V230H82.6837ZM105.699 230.396C103.803 230.396 102.147 230.024 100.731 229.28C99.3392 228.512 98.2592 227.444 97.4912 226.076C96.7232 224.684 96.3392 223.04 96.3392 221.144C96.3392 219.272 96.7232 217.652 97.4912 216.284C98.2592 214.892 99.3392 213.824 100.731 213.08C102.147 212.336 103.803 211.964 105.699 211.964C107.595 211.964 109.239 212.336 110.631 213.08C112.047 213.824 113.139 214.892 113.907 216.284C114.699 217.652 115.095 219.272 115.095 221.144C115.095 223.04 114.699 224.684 113.907 226.076C113.139 227.444 112.047 228.512 110.631 229.28C109.239 230.024 107.595 230.396 105.699 230.396ZM105.699 226.328C106.851 226.328 107.787 225.908 108.507 225.068C109.251 224.228 109.623 222.92 109.623 221.144C109.623 219.392 109.251 218.108 108.507 217.292C107.787 216.452 106.851 216.032 105.699 216.032C104.547 216.032 103.611 216.452 102.891 217.292C102.171 218.108 101.811 219.392 101.811 221.144C101.811 222.92 102.171 224.228 102.891 225.068C103.611 225.908 104.547 226.328 105.699 226.328ZM124.99 230.396C122.71 230.396 121.042 229.808 119.986 228.632C118.93 227.432 118.402 225.656 118.402 223.304V204.62H123.838V223.088C123.838 225.008 124.69 225.968 126.394 225.968C126.658 225.968 126.91 225.956 127.15 225.932C127.414 225.908 127.666 225.86 127.906 225.788L127.834 230C126.922 230.264 125.974 230.396 124.99 230.396ZM139.395 230.396C137.307 230.396 135.507 230.024 133.995 229.28C132.507 228.512 131.355 227.444 130.539 226.076C129.747 224.684 129.351 223.052 129.351 221.18C129.351 219.356 129.735 217.76 130.503 216.392C131.295 215 132.363 213.92 133.707 213.152C135.075 212.36 136.647 211.964 138.423 211.964C140.991 211.964 143.031 212.78 144.543 214.412C146.055 216.02 146.811 218.204 146.811 220.964V222.332H134.535C134.727 223.724 135.231 224.744 136.047 225.392C136.887 226.016 138.039 226.328 139.503 226.328C140.463 226.328 141.435 226.184 142.419 225.896C143.403 225.608 144.291 225.164 145.083 224.564L146.523 228.2C145.635 228.872 144.543 229.412 143.247 229.82C141.975 230.204 140.691 230.396 139.395 230.396ZM138.639 215.564C137.487 215.564 136.551 215.912 135.831 216.608C135.135 217.304 134.703 218.276 134.535 219.524H142.311C142.167 216.884 140.943 215.564 138.639 215.564ZM160.46 230V204.62H177.596V208.976H166.04V215.168H176.804V219.524H166.04V230H160.46ZM180.308 208.904V203.828H186.176V208.904H180.308ZM180.524 230V212.324H185.96V230H180.524ZM190.156 230V212.324H195.484V214.916C196.084 213.956 196.888 213.224 197.896 212.72C198.904 212.216 200.032 211.964 201.28 211.964C203.368 211.964 204.928 212.576 205.96 213.8C206.992 215 207.508 216.86 207.508 219.38V230H202.072V219.632C202.072 218.408 201.844 217.532 201.388 217.004C200.932 216.452 200.26 216.176 199.372 216.176C198.22 216.176 197.296 216.536 196.6 217.256C195.928 217.976 195.592 218.936 195.592 220.136V230H190.156ZM217.543 230.396C216.223 230.396 215.059 230.144 214.051 229.64C213.043 229.136 212.239 228.452 211.639 227.588C211.063 226.724 210.775 225.752 210.775 224.672C210.775 223.4 211.111 222.38 211.783 221.612C212.455 220.844 213.547 220.304 215.059 219.992C216.571 219.656 218.575 219.488 221.071 219.488H222.367V218.876C222.367 217.82 222.127 217.076 221.647 216.644C221.167 216.188 220.351 215.96 219.199 215.96C218.239 215.96 217.219 216.116 216.139 216.428C215.083 216.716 214.027 217.16 212.971 217.76L211.495 214.124C212.119 213.716 212.875 213.344 213.763 213.008C214.675 212.672 215.623 212.42 216.607 212.252C217.591 212.06 218.527 211.964 219.415 211.964C222.151 211.964 224.191 212.588 225.535 213.836C226.879 215.06 227.551 216.968 227.551 219.56V230H222.475V227.336C222.115 228.272 221.503 229.016 220.639 229.568C219.799 230.12 218.767 230.396 217.543 230.396ZM218.767 226.76C219.775 226.76 220.627 226.412 221.323 225.716C222.019 225.02 222.367 224.12 222.367 223.016V222.296H221.107C219.259 222.296 217.951 222.464 217.183 222.8C216.415 223.112 216.031 223.664 216.031 224.456C216.031 225.128 216.259 225.68 216.715 226.112C217.195 226.544 217.879 226.76 218.767 226.76ZM231.606 230V212.324H236.934V214.916C237.534 213.956 238.338 213.224 239.346 212.72C240.354 212.216 241.482 211.964 242.73 211.964C244.818 211.964 246.378 212.576 247.41 213.8C248.442 215 248.958 216.86 248.958 219.38V230H243.522V219.632C243.522 218.408 243.294 217.532 242.838 217.004C242.382 216.452 241.71 216.176 240.822 216.176C239.67 216.176 238.746 216.536 238.05 217.256C237.378 217.976 237.042 218.936 237.042 220.136V230H231.606ZM261.62 230.396C259.7 230.396 258.02 230.024 256.58 229.28C255.164 228.512 254.072 227.432 253.304 226.04C252.536 224.648 252.152 223.004 252.152 221.108C252.152 219.212 252.536 217.58 253.304 216.212C254.072 214.844 255.164 213.8 256.58 213.08C258.02 212.336 259.7 211.964 261.62 211.964C262.748 211.964 263.888 212.132 265.04 212.468C266.192 212.804 267.128 213.284 267.848 213.908L266.336 217.652C265.736 217.172 265.064 216.8 264.32 216.536C263.576 216.248 262.856 216.104 262.16 216.104C260.744 216.104 259.64 216.548 258.848 217.436C258.08 218.3 257.696 219.536 257.696 221.144C257.696 222.728 258.08 223.976 258.848 224.888C259.64 225.776 260.744 226.22 262.16 226.22C262.832 226.22 263.54 226.088 264.284 225.824C265.052 225.56 265.736 225.176 266.336 224.672L267.848 228.416C267.128 229.04 266.192 229.532 265.04 229.892C263.888 230.228 262.748 230.396 261.62 230.396ZM279.036 230.396C276.948 230.396 275.148 230.024 273.636 229.28C272.148 228.512 270.996 227.444 270.18 226.076C269.388 224.684 268.992 223.052 268.992 221.18C268.992 219.356 269.376 217.76 270.144 216.392C270.936 215 272.004 213.92 273.348 213.152C274.716 212.36 276.288 211.964 278.064 211.964C280.632 211.964 282.672 212.78 284.184 214.412C285.696 216.02 286.452 218.204 286.452 220.964V222.332H274.176C274.368 223.724 274.872 224.744 275.688 225.392C276.528 226.016 277.68 226.328 279.144 226.328C280.104 226.328 281.076 226.184 282.06 225.896C283.044 225.608 283.932 225.164 284.724 224.564L286.164 228.2C285.276 228.872 284.184 229.412 282.888 229.82C281.616 230.204 280.332 230.396 279.036 230.396ZM278.28 215.564C277.128 215.564 276.192 215.912 275.472 216.608C274.776 217.304 274.344 218.276 274.176 219.524H281.952C281.808 216.884 280.584 215.564 278.28 215.564ZM289.397 208.904V203.828H295.265V208.904H289.397ZM289.613 230V212.324H295.049V230H289.613ZM299.246 230V212.324H304.574V215.384C305.414 213.32 307.214 212.18 309.974 211.964L311.558 211.856L311.882 216.428L308.822 216.752C306.134 217.016 304.79 218.384 304.79 220.856V230H299.246ZM322.262 230.396C320.366 230.396 318.71 230.024 317.294 229.28C315.902 228.512 314.822 227.444 314.054 226.076C313.286 224.684 312.902 223.04 312.902 221.144C312.902 219.272 313.286 217.652 314.054 216.284C314.822 214.892 315.902 213.824 317.294 213.08C318.71 212.336 320.366 211.964 322.262 211.964C324.158 211.964 325.802 212.336 327.194 213.08C328.61 213.824 329.702 214.892 330.47 216.284C331.262 217.652 331.658 219.272 331.658 221.144C331.658 223.04 331.262 224.684 330.47 226.076C329.702 227.444 328.61 228.512 327.194 229.28C325.802 230.024 324.158 230.396 322.262 230.396ZM322.262 226.328C323.414 226.328 324.35 225.908 325.07 225.068C325.814 224.228 326.186 222.92 326.186 221.144C326.186 219.392 325.814 218.108 325.07 217.292C324.35 216.452 323.414 216.032 322.262 216.032C321.11 216.032 320.174 216.452 319.454 217.292C318.734 218.108 318.374 219.392 318.374 221.144C318.374 222.92 318.734 224.228 319.454 225.068C320.174 225.908 321.11 226.328 322.262 226.328Z" fill="white"/>
</svg>
