<svg width="400" height="400" viewBox="0 0 400 400" fill="none" xmlns="http://www.w3.org/2000/svg">
<rect width="400" height="400" fill="white"/>
<path d="M170.519 153.397L140.66 171.886L140.633 175.139V178.423H200.511H260.39V175.139V171.886L230.664 153.488C214.332 143.362 200.832 135.061 200.672 135C200.511 134.97 186.932 143.241 170.519 153.397ZM223.848 157.928C236.519 165.378 246.997 171.582 247.131 171.764C247.291 171.916 229.622 172.038 200.378 172.038C174.529 172.038 153.464 171.946 153.571 171.825C153.919 171.43 200.11 144.396 200.458 144.396C200.672 144.366 211.177 150.478 223.848 157.928Z" fill="#DCDCDC"/>
<path d="M153.838 185.235C152.742 185.782 152.128 186.816 152.128 188.154C152.128 190.313 153.598 191.499 156.271 191.499H157.741V212.481V233.463H156.271C153.598 233.463 152.128 234.649 152.128 236.808C152.128 238.176 152.742 239.18 153.892 239.727C155.202 240.366 177.389 240.366 178.699 239.727C179.848 239.18 180.463 238.176 180.463 236.808C180.463 234.649 178.993 233.463 176.32 233.463H174.849V212.481V191.499H176.32C178.993 191.499 180.463 190.313 180.463 188.154C180.463 186.786 179.848 185.782 178.699 185.235C177.416 184.627 155.068 184.627 153.838 185.235ZM169.236 212.481V233.463H166.295H163.355V212.481V191.499H166.295H169.236V212.481Z" fill="#DCDCDC"/>
<path d="M188.055 185.235C186.959 185.782 186.344 186.816 186.344 188.154C186.344 190.313 187.814 191.499 190.487 191.499H191.957V212.481V233.463H190.487C187.814 233.463 186.344 234.649 186.344 236.808C186.344 238.176 186.959 239.18 188.108 239.727C189.418 240.366 211.605 240.366 212.915 239.727C214.064 239.18 214.679 238.176 214.679 236.808C214.679 234.649 213.209 233.463 210.536 233.463H209.065V212.481V191.499H210.536C213.209 191.499 214.679 190.313 214.679 188.154C214.679 186.786 214.064 185.782 212.915 185.235C211.632 184.627 189.284 184.627 188.055 185.235ZM203.452 212.481V233.463H200.511H197.571V212.481V191.499H200.511H203.452V212.481Z" fill="#DCDCDC"/>
<path d="M222.271 185.235C221.175 185.782 220.56 186.816 220.56 188.154C220.56 190.313 222.03 191.499 224.703 191.499H226.174V212.481V233.463H224.703C222.03 233.463 220.56 234.649 220.56 236.808C220.56 238.176 221.175 239.18 222.324 239.727C223.634 240.366 245.821 240.366 247.131 239.727C248.28 239.18 248.895 238.176 248.895 236.808C248.895 234.649 247.425 233.463 244.752 233.463H243.282V212.481V191.499H244.752C247.425 191.499 248.895 190.313 248.895 188.154C248.895 186.786 248.28 185.782 247.131 185.235C245.848 184.627 223.5 184.627 222.271 185.235ZM237.668 212.481V233.463H234.728H231.787V212.481V191.499H234.728H237.668V212.481Z" fill="#DCDCDC"/>
<path d="M144.857 247.056C143.36 248.12 143.092 250.613 144.349 252.042L145.124 252.924H200.511H255.899L256.674 252.042C257.957 250.552 257.583 247.724 255.979 246.903C255.444 246.63 242.399 246.539 200.431 246.539C149.802 246.569 145.525 246.599 144.857 247.056Z" fill="#DCDCDC"/>
<path d="M135.795 260.496C134.538 261.956 134.806 264.449 136.356 265.483C137.051 265.97 141.836 266 200.485 266C249.029 266 263.998 265.909 264.533 265.635C266.137 264.814 266.511 261.986 265.228 260.496L264.453 259.614H200.511H136.57L135.795 260.496Z" fill="#DCDCDC"/>
</svg>
