<svg width="400" height="400" viewBox="0 0 400 400" fill="none" xmlns="http://www.w3.org/2000/svg">
<rect width="400" height="400" fill="white"/>
<path d="M159.312 114.649L112.814 143.44L112.772 148.507V153.621H206.018H299.263V148.507V143.44L252.974 114.791C227.539 99.0224 206.517 86.0949 206.268 86.0001C206.018 85.9528 184.871 98.833 159.312 114.649ZM242.359 121.705C262.09 133.307 278.408 142.967 278.616 143.251C278.866 143.488 251.35 143.677 205.81 143.677C165.556 143.677 132.753 143.535 132.92 143.346C133.461 142.73 205.393 100.632 205.935 100.632C206.268 100.585 222.627 110.103 242.359 121.705Z" fill="#E7E7E7"/>
<path d="M133.336 164.229C131.629 165.081 130.672 166.691 130.672 168.774C130.672 172.137 132.962 173.983 137.124 173.983H139.414V206.657V239.332H137.124C132.962 239.332 130.672 241.178 130.672 244.54C130.672 246.671 131.629 248.234 133.419 249.086C135.459 250.081 170.01 250.081 172.05 249.086C173.84 248.234 174.797 246.671 174.797 244.54C174.797 241.178 172.508 239.332 168.345 239.332H166.055V206.657V173.983H168.345C172.508 173.983 174.797 172.137 174.797 168.774C174.797 166.644 173.84 165.081 172.05 164.229C170.052 163.281 135.251 163.281 133.336 164.229ZM157.314 206.657V239.332H152.735H148.156V206.657V173.983H152.735H157.314V206.657Z" fill="#E7E7E7"/>
<path d="M186.619 164.229C184.913 165.081 183.955 166.691 183.955 168.774C183.955 172.137 186.245 173.983 190.407 173.983H192.697V206.657V239.332H190.407C186.245 239.332 183.955 241.178 183.955 244.54C183.955 246.671 184.913 248.234 186.703 249.086C188.742 250.081 223.293 250.081 225.333 249.086C227.123 248.234 228.08 246.671 228.08 244.54C228.08 241.178 225.791 239.332 221.628 239.332H219.339V206.657V173.983H221.628C225.791 173.983 228.08 172.137 228.08 168.774C228.08 166.644 227.123 165.081 225.333 164.229C223.335 163.281 188.534 163.281 186.619 164.229ZM210.597 206.657V239.332H206.018H201.439V206.657V173.983H206.018H210.597V206.657Z" fill="#E7E7E7"/>
<path d="M239.903 164.229C238.196 165.081 237.238 166.691 237.238 168.774C237.238 172.137 239.528 173.983 243.691 173.983H245.98V206.657V239.332H243.691C239.528 239.332 237.238 241.178 237.238 244.54C237.238 246.671 238.196 248.234 239.986 249.086C242.026 250.081 276.576 250.081 278.616 249.086C280.406 248.234 281.364 246.671 281.364 244.54C281.364 241.178 279.074 239.332 274.911 239.332H272.622V206.657V173.983H274.911C279.074 173.983 281.364 172.137 281.364 168.774C281.364 166.644 280.406 165.081 278.616 164.229C276.618 163.281 241.817 163.281 239.903 164.229ZM263.88 206.657V239.332H259.301H254.722V206.657V173.983H259.301H263.88V206.657Z" fill="#E7E7E7"/>
<path d="M119.349 260.499C117.018 262.156 116.602 266.039 118.558 268.265L119.766 269.638H206.018H292.27L293.477 268.265C295.475 265.944 294.892 261.54 292.395 260.262C291.562 259.836 271.248 259.694 205.893 259.694C127.05 259.741 120.39 259.788 119.349 260.499Z" fill="#E7E7E7"/>
<path d="M105.238 281.429C103.281 283.702 103.697 287.585 106.112 289.195C107.194 289.953 114.645 290 205.976 290C281.572 290 304.883 289.858 305.716 289.432C308.213 288.153 308.796 283.749 306.798 281.429L305.591 280.056H206.018H106.445L105.238 281.429Z" fill="#E7E7E7"/>
</svg>
